#!OML:ASF E:\Steps\Project 1\Capture day 1\Session 2\Subject.ASF
:FULLY-SPECIFIED
:DEGREES
158
root 7.27722 16.2783 31.6138 -154.202 -0.668826 177.783
lowerback -28.4286 -1.63255 -7.3459
upperback -1.28902 -0.347185 -0.493276
thorax 13.6237 -0.859465 3.27018
lowerneck -5.67273 -3.29613 -2.08624
upperneck 10.1677 -5.36941 7.1941
head 4.21987 -2.49378 2.24028
rclavicle -5.91384e-015 -1.19271e-015
rhumerus -40.2069 -21.1745 -76.7993
rradius 33.2004
rwrist -2.36941
rhand -7.32285 -52.952
rfingers 7.12502
rthumb 18.5603 -82.0866
lclavicle -5.91384e-015 -1.19271e-015
lhumerus -31.0938 11.9027 78.5868
lradius 21.4425
lwrist -5.03981
lhand -21.0096 -13.6292
lfingers 7.12502
lthumb 5.36512 16.2828
rfemur -22.8826 3.86621 21.592
rtibia 5.79913
rfoot -18.8212 -5.11409
rtoes -27.2682
lfemur -24.65 -10.3201 -19.3962
ltibia 9.81326
lfoot -8.58936 0.0262956
ltoes -30.4231
159
root 7.27951 16.2775 31.6119 -154.187 -0.605287 177.735
lowerback -28.4776 -1.65023 -7.42548
upperback -1.28849 -0.344424 -0.480874
thorax 13.6459 -0.865118 3.3266
lowerneck -5.55571 -3.31351 -2.01641
upperneck 10.0959 -5.37593 7.06218
head 4.17338 -2.50345 2.1907
rclavicle -1.36167e-014 -1.98785e-014
rhumerus -40.1754 -21.1119 -76.8103
rradius 33.1999
rwrist -2.33983
rhand -7.22571 -52.7937
rfingers 7.12502
rthumb 18.6537 -81.9193
lclavicle -1.36167e-014 -1.98785e-014
lhumerus -31.1108 11.9677 78.6194
lradius 21.4839
lwrist -5.14433
lhand -20.9212 -13.7664
lfingers 7.12502
lthumb 5.45046 16.1435
rfemur -22.9102 3.70268 21.5638
rtibia 5.84387
rfoot -18.8581 -4.89021
rtoes -27.134
lfemur -24.6369 -10.2945 -19.4666
ltibia 9.80533
lfoot -8.66422 -0.0274705
ltoes -29.2337
160
root 7.2814 16.28 31.6103 -154.241 -0.600929 177.707
lowerback -28.4636 -1.65563 -7.45349
upperback -1.2451 -0.333738 -0.486567
thorax 13.6882 -0.861432 3.34039
lowerneck -5.24782 -3.33228 -2.01066
upperneck 9.60214 -5.36509 7.14563
head 3.97363 -2.50585 2.22435
rclavicle -4.12478e-015 1.15295e-014
rhumerus -40.1067 -21.0261 -76.9118
rradius 33.2798
rwrist -2.45344
rhand -7.3416 -52.9959
rfingers 7.12502
rthumb 18.5423 -82.1322
lclavicle -4.12478e-015 1.15295e-014
lhumerus -31.0847 11.701 78.7395
lradius 21.6304
lwrist -4.95635
lhand -20.8576 -13.8179
lfingers 7.12502
lthumb 5.51181 16.0904
rfemur -22.8311 3.69836 21.5347
rtibia 5.8397
rfoot -18.8797 -4.87184
rtoes -27.0968
lfemur -24.5687 -10.2245 -19.5197
ltibia 9.79923
lfoot -8.60317 -0.176783
ltoes -28.7567
161
root 7.28419 16.2803 31.6106 -154.219 -0.608716 177.746
lowerback -28.4701 -1.61974 -7.41352
upperback -1.23396 -0.295929 -0.488955
thorax 13.7005 -0.841688 3.33075
lowerneck -5.92512 -3.24017 -2.11257
upperneck 10.5958 -5.34064 7.22876
head 4.39279 -2.47062 2.25013
rclavicle -4.67144e-015 -1.19271e-015
rhumerus -40.1203 -21.0236 -76.9984
rradius 33.4761
rwrist -2.59364
rhand -7.57598 -53.1034
rfingers 7.12502
rthumb 18.3168 -82.261
lclavicle -4.67144e-015 -1.19271e-015
lhumerus -31.0541 11.1973 78.9177
lradius 21.8259
lwrist -4.61468
lhand -20.9592 -13.7852
lfingers 7.12502
lthumb 5.41377 16.1256
rfemur -22.8494 3.82782 21.5613
rtibia 5.8323
rfoot -18.8818 -4.91757
rtoes -26.7123
lfemur -24.5941 -10.2003 -19.4468
ltibia 9.78108
lfoot -8.48728 -0.230364
ltoes -28.01
